<svg width="35" height="44" viewBox="0 0 35 44" fill="none" xmlns="http://www.w3.org/2000/svg">
<g clip-path="url(#clip0_59_16)">
<path fill-rule="evenodd" clip-rule="evenodd" d="M17.9602 1.01V0.88C17.7902 0.86 17.6202 0.85 17.4602 0.85C17.3102 0.85 17.1602 0.86 17.0202 0.88V1.01C17.1302 1.01 17.2302 1.01 17.3402 1.01H17.6602C17.7602 1.01 17.8602 1.01 17.9602 1.01ZM23.2902 27.26C21.3302 28.52 19.6002 29.37 17.7602 29.48C15.9002 29.59 13.9802 28.95 11.6702 27.24L10.6002 27.94C11.1602 28.8 12.0402 29.48 13.0602 29.97C14.4502 30.64 16.0702 30.97 17.4702 30.97C18.9302 30.97 20.4002 30.58 21.6502 29.98C22.8002 29.42 23.7502 28.69 24.3402 27.91L23.2902 27.27V27.26ZM9.52022 28.34L9.81021 28.28C10.4502 29.34 11.4902 30.16 12.6902 30.74C14.1902 31.46 15.9502 31.82 17.4702 31.82C19.0702 31.82 20.6602 31.4 22.0202 30.74C23.3602 30.09 24.4802 29.2 25.1302 28.25C25.2302 28.27 25.3302 28.29 25.4302 28.32V36.68H9.52022V28.35V28.34ZM26.2902 28.53C26.9502 28.7 27.5802 28.9 28.1702 29.12V29.99C28.1702 35.3 28.1602 37.03 29.6802 42.34H5.26021C6.79021 37.02 6.79021 35.3 6.79021 29.98V29.13C7.39021 28.91 8.02022 28.72 8.68021 28.55V37.09C8.68021 37.33 8.87022 37.52 9.10021 37.52H25.8602C26.0902 37.52 26.2902 37.34 26.2902 37.1V28.53ZM29.0202 29.45V29.99C29.0202 35.29 29.0102 36.95 30.5702 42.34H32.1702C32.6402 42.34 33.0702 42.15 33.3802 41.84C33.6902 41.53 33.8802 41.1 33.8802 40.63V34.85C33.8802 33.29 33.0302 31.98 31.6102 30.91C30.8802 30.36 30.0102 29.87 29.0202 29.46V29.45ZM30.2702 43.2H2.78021C2.07021 43.2 1.43021 42.91 0.970215 42.45C0.500215 41.99 0.220215 41.34 0.220215 40.64V34.86C0.220215 33.01 1.19021 31.47 2.83021 30.25C4.56021 28.95 7.05021 28 9.88021 27.41L11.3402 26.46C11.4802 25.84 11.5602 24.34 11.6202 23.22C11.6402 22.88 11.6502 22.56 11.6702 22.34C11.4402 22.09 11.2202 21.83 11.0102 21.56C10.1402 20.45 9.41021 19.15 8.91021 17.78C8.43021 16.47 8.16021 15.09 8.16021 13.74V13.68C8.16021 13.68 8.16021 13.62 8.16021 13.6C8.16021 13.42 8.15021 13.26 8.15021 13.11C8.15021 12.4 8.14021 11.83 8.13021 11.27C8.03021 5.74 7.95021 1.44 16.1902 1.04V0.54C16.1902 0.34 16.3202 0.15 16.5202 0.11C16.8302 0.04 17.1502 0 17.4802 0C17.8102 0 18.1302 0.03 18.4602 0.1C18.6702 0.13 18.8302 0.31 18.8302 0.53V1.05C27.0202 1.46 26.9502 5.75 26.8502 11.27C26.8402 11.82 26.8302 12.4 26.8302 13.11C26.8302 13.16 26.8302 13.25 26.8302 13.39V13.6C26.8302 13.6 26.8302 13.65 26.8302 13.68V13.74C26.8302 15.1 26.5602 16.47 26.0802 17.78C25.5802 19.15 24.8502 20.45 23.9802 21.56C23.7502 21.85 23.5202 22.12 23.2802 22.38C23.3002 22.64 23.3202 22.94 23.3502 23.27C23.4202 24.39 23.5302 25.88 23.6702 26.5L25.1202 27.39C27.9402 27.98 30.4202 28.93 32.1502 30.24C33.7802 31.47 34.7602 33.01 34.7602 34.87V40.65C34.7602 41.36 34.4702 42 34.0102 42.46C33.5502 42.93 32.9002 43.21 32.2002 43.21H30.3002L30.2702 43.2ZM12.4602 23.13C12.9702 23.58 13.5102 23.98 14.0602 24.3C15.1502 24.93 16.3102 25.3 17.4702 25.3C18.6302 25.3 19.7902 24.94 20.8802 24.3C21.4302 23.98 21.9602 23.6 22.4602 23.15V23.32C22.5402 24.39 22.6402 25.8 22.7902 26.57C20.9602 27.75 19.3602 28.53 17.7102 28.63C16.0502 28.73 14.3102 28.13 12.1602 26.55C12.3102 25.79 12.3802 24.35 12.4402 23.26V23.13H12.4602ZM4.37021 42.35C5.94021 36.95 5.94021 35.29 5.93021 29.99V29.47C4.93021 29.89 4.05021 30.37 3.32021 30.92C1.90021 31.98 1.06021 33.29 1.06021 34.85V40.63C1.06021 41.1 1.25021 41.53 1.56021 41.84C1.87021 42.15 2.30021 42.34 2.77021 42.34H4.37021V42.35ZM9.74021 15.05C9.48021 14.69 9.24021 14.23 9.00021 13.76C9.00021 15.01 9.26021 16.28 9.70021 17.49C10.1702 18.78 10.8502 19.99 11.6702 21.03C11.9002 21.33 12.1402 21.61 12.4002 21.87L12.4202 21.89C13.0602 22.56 13.7702 23.13 14.5002 23.56C15.4602 24.12 16.4702 24.44 17.4802 24.44C18.4902 24.44 19.5102 24.12 20.4602 23.56C21.5002 22.96 22.4702 22.08 23.3002 21.02C24.1202 19.98 24.8002 18.76 25.2702 17.48C25.7102 16.27 25.9702 14.99 25.9702 13.73V13.67L25.2702 14.88C25.1502 15.08 24.8902 15.15 24.6902 15.04C24.6302 15 24.5802 14.95 24.5402 14.9C24.3202 14.58 24.0102 14.29 23.6302 14.03C22.2302 13.07 19.9602 12.56 17.6502 12.54C15.3402 12.53 13.0202 13.01 11.5202 14.04H11.5002C11.0802 14.35 10.7302 14.69 10.4602 15.07C10.3302 15.26 10.0602 15.31 9.87021 15.18C9.82021 15.15 9.79021 15.11 9.76021 15.06L9.74021 15.05ZM8.97021 11.39C10.8302 9.87 14.2602 9.16 17.6502 9.17C20.9602 9.18 24.2502 9.9 25.9902 11.24C26.0902 5.94 26.1502 1.88 17.5302 1.87H17.4302C8.80021 1.88 8.87021 5.95 8.97021 11.26V11.4V11.39ZM9.75021 13.37C9.88021 13.62 10.0102 13.87 10.1402 14.09C10.3902 13.82 10.6802 13.58 11.0002 13.35L11.0202 13.33C12.6602 12.2 15.1702 11.67 17.6302 11.68C20.1002 11.7 22.5502 12.26 24.0902 13.32C24.3602 13.5 24.6002 13.71 24.8202 13.92L25.8102 12.21C25.7302 12.13 25.6502 12.06 25.5602 11.98C24.0102 10.7 20.8502 10.03 17.6402 10.01C14.4302 9.99 11.1902 10.65 9.50021 12.04C9.39021 12.13 9.28022 12.23 9.18021 12.33C9.37021 12.64 9.56021 12.99 9.74021 13.35L9.75021 13.37Z" fill="white"/>
</g>
<defs>
<clipPath id="clip0_59_16">
<rect width="34.53" height="43.2" fill="white" transform="translate(0.210205)"/>
</clipPath>
</defs>
</svg>
