<svg width="70" height="44" viewBox="0 0 70 44" fill="none" xmlns="http://www.w3.org/2000/svg">
<g clip-path="url(#clip0_59_14)">
<path fill-rule="evenodd" clip-rule="evenodd" d="M57.35 29.34C55.61 29.34 54.04 30.04 52.91 31.18C51.78 32.32 51.07 33.89 51.07 35.62C51.07 37.35 51.77 38.92 52.91 40.06C54.05 41.2 55.62 41.9 57.35 41.9C59.08 41.9 60.66 41.2 61.8 40.06C62.93 38.93 63.64 37.35 63.64 35.62C63.64 33.89 62.93 32.31 61.8 31.18C60.66 30.04 59.09 29.34 57.36 29.34H57.35ZM49.27 6.75H60.49C61 6.75 61.48 6.92 61.87 7.21C62.25 7.5 62.55 7.92 62.68 8.41L65.65 19.02C65.74 19.37 65.54 19.72 65.2 19.82C65.14 19.84 65.08 19.85 65.02 19.85H49.26C48.9 19.85 48.61 19.56 48.61 19.2V7.4C48.61 7.04 48.9 6.75 49.26 6.75H49.27ZM60.49 8.05H49.92V18.55H64.18L61.44 8.77C61.38 8.55 61.26 8.38 61.09 8.25C60.93 8.12 60.72 8.06 60.49 8.06V8.05ZM3.91 24.03H39.86C40.58 24.03 41.23 23.74 41.7 23.27C42.17 22.79 42.46 22.14 42.46 21.43V3.91C42.46 3.19 42.17 2.54 41.7 2.07C41.23 1.6 40.58 1.3 39.86 1.3H3.91C3.19 1.3 2.54 1.59 2.07 2.07C1.6 2.54 1.3 3.19 1.3 3.91V21.43C1.3 22.15 1.59 22.8 2.07 23.27C2.54 23.74 3.19 24.03 3.91 24.03ZM5.22 25.33H3.91C2.83 25.33 1.86 24.89 1.15 24.18C0.44 23.47 0 22.5 0 21.42V3.91C0 2.83 0.44 1.85 1.15 1.14C1.85 0.44 2.83 0 3.91 0H39.86C40.93 0 41.91 0.44 42.62 1.14C43.33 1.85 43.77 2.83 43.77 3.9V21.43C43.77 22.43 43.39 23.34 42.77 24.04H44.35V3.73C44.35 3.37 44.64 3.08 45 3.08H62.02C62.9 3.08 63.72 3.37 64.38 3.87C65.04 4.37 65.54 5.08 65.78 5.94L69.39 18.83V18.86C69.44 19.03 69.47 19.19 69.5 19.35C69.53 19.53 69.54 19.7 69.54 19.88V35.62C69.54 35.98 69.25 36.27 68.89 36.27H66.79C66.43 36.27 66.14 35.98 66.14 35.62C66.14 33.2 65.16 31 63.57 29.41L63.54 29.38C61.95 27.81 59.77 26.84 57.36 26.84C54.95 26.84 52.74 27.82 51.16 29.41C49.57 31 48.59 33.19 48.59 35.62C48.59 35.98 48.3 36.27 47.94 36.27H45.66V37.46C45.66 37.82 45.37 38.11 45.01 38.11H30.28C29.92 38.11 29.63 37.82 29.63 37.46V36.2H28.19C27.83 36.2 27.54 35.91 27.54 35.55V35.5C27.51 33.11 26.52 30.96 24.95 29.39C23.36 27.82 21.18 26.84 18.77 26.84C16.36 26.84 14.17 27.81 12.59 29.39C11 30.96 10.01 33.14 9.99 35.55C9.99 35.91 9.7 36.2 9.34 36.2H9.14C8.07 36.2 7.08 35.76 6.38 35.06C5.67 34.35 5.23 33.37 5.23 32.3V25.34L5.22 25.33ZM29.61 25.33H6.52V32.29C6.52 33.01 6.81 33.66 7.29 34.13C7.67 34.51 8.16 34.77 8.71 34.86C8.89 32.36 9.99 30.12 11.66 28.47C13.48 26.66 15.99 25.54 18.76 25.54C21.53 25.54 24.04 26.66 25.86 28.47C27.54 30.14 28.64 32.39 28.81 34.9H29.62V25.33H29.61ZM44.34 25.33H30.91V36.8H44.34V25.33ZM62.02 4.38C62.62 4.38 63.17 4.57 63.6 4.9C64.04 5.23 64.37 5.71 64.53 6.28L68.14 19.18V19.2C68.18 19.31 68.2 19.42 68.21 19.53C68.23 19.63 68.23 19.75 68.23 19.89V34.98H67.41C67.25 32.46 66.16 30.19 64.48 28.51L64.44 28.47C62.62 26.67 60.11 25.55 57.35 25.55C54.59 25.55 52.05 26.68 50.22 28.5C48.54 30.18 47.45 32.45 47.29 34.97H45.64V4.38H62.01H62.02ZM18.75 32.76C17.95 32.76 17.24 33.08 16.72 33.6C16.2 34.12 15.88 34.84 15.88 35.63C15.88 36.42 16.2 37.14 16.72 37.66C17.24 38.18 17.96 38.5 18.75 38.5C19.54 38.5 20.26 38.18 20.78 37.66C21.3 37.14 21.62 36.42 21.62 35.63C21.62 34.84 21.3 34.12 20.78 33.6C20.26 33.08 19.54 32.76 18.75 32.76ZM15.8 32.68C15.05 33.43 14.58 34.48 14.58 35.63C14.58 36.78 15.05 37.82 15.8 38.58C16.56 39.33 17.6 39.8 18.75 39.8C19.9 39.8 20.94 39.33 21.7 38.58C22.46 37.82 22.92 36.78 22.92 35.63C22.92 34.48 22.45 33.44 21.7 32.68C20.94 31.92 19.9 31.45 18.75 31.45C17.6 31.45 16.55 31.92 15.8 32.67V32.68ZM57.35 32.76C58.14 32.76 58.86 33.08 59.38 33.6C59.9 34.12 60.22 34.84 60.22 35.63C60.22 36.42 59.91 37.11 59.41 37.63L59.38 37.66C58.86 38.18 58.14 38.5 57.35 38.5C56.56 38.5 55.84 38.18 55.32 37.66C54.8 37.14 54.48 36.42 54.48 35.63C54.48 34.84 54.8 34.12 55.32 33.6C55.84 33.08 56.56 32.76 57.35 32.76ZM54.4 32.68C55.16 31.93 56.2 31.46 57.35 31.46C58.5 31.46 59.54 31.93 60.3 32.68C61.06 33.44 61.52 34.48 61.52 35.63C61.52 36.78 61.07 37.79 60.34 38.54L60.3 38.58C59.54 39.33 58.5 39.8 57.35 39.8C56.2 39.8 55.16 39.33 54.4 38.58C53.64 37.82 53.18 36.78 53.18 35.63C53.18 34.48 53.65 33.44 54.4 32.68ZM18.75 29.34C17.01 29.34 15.44 30.04 14.31 31.18C13.17 32.32 12.47 33.89 12.47 35.63C12.47 37.37 13.17 38.93 14.31 40.07L14.34 40.1C15.47 41.22 17.03 41.91 18.75 41.91C20.47 41.91 22.05 41.21 23.19 40.07C24.33 38.93 25.03 37.36 25.03 35.63C25.03 33.9 24.33 32.32 23.19 31.19C22.05 30.05 20.48 29.35 18.75 29.35V29.34ZM13.39 30.26C12.02 31.63 11.17 33.53 11.17 35.62C11.17 37.71 12.02 39.61 13.39 40.98L13.43 41.02C14.8 42.37 16.68 43.21 18.76 43.21C20.84 43.21 22.75 42.36 24.12 40.99C25.49 39.62 26.34 37.72 26.34 35.63C26.34 33.54 25.49 31.64 24.12 30.27C22.75 28.9 20.85 28.05 18.76 28.05C16.67 28.05 14.77 28.9 13.4 30.27L13.39 30.26ZM51.99 30.26C53.36 28.89 55.26 28.04 57.35 28.04C59.44 28.04 61.34 28.89 62.72 30.26C64.09 31.63 64.95 33.53 64.95 35.62C64.95 37.71 64.1 39.61 62.72 40.98C61.35 42.35 59.45 43.21 57.36 43.21C55.27 43.21 53.37 42.36 52 40.99C50.63 39.62 49.78 37.72 49.78 35.63C49.78 33.54 50.63 31.64 52 30.27L51.99 30.26Z" fill="white"/>
</g>
<defs>
<clipPath id="clip0_59_14">
<rect width="69.53" height="43.2" fill="white"/>
</clipPath>
</defs>
</svg>
