<svg width="49" height="44" viewBox="0 0 49 44" fill="none" xmlns="http://www.w3.org/2000/svg">
<g clip-path="url(#clip0_59_27)">
<path fill-rule="evenodd" clip-rule="evenodd" d="M20.97 32.48H47.89V31.21H41.82C41.82 31.21 41.74 31.21 41.7 31.21H7.72003C7.72003 31.21 7.64003 31.21 7.60003 31.21H1.53003V32.48H20.97ZM29.04 1V6.1C29.04 6.21 29.01 6.31 28.95 6.39L27.68 8.31C27.53 8.54 27.22 8.6 26.99 8.45C26.93 8.41 26.88 8.36 26.84 8.31L25.98 7.01L25.12 8.31C24.97 8.54 24.66 8.6 24.43 8.45C24.37 8.41 24.32 8.36 24.28 8.31L23.42 7.01L22.56 8.31C22.41 8.54 22.1 8.6 21.87 8.45C21.81 8.41 21.76 8.36 21.73 8.31L20.45 6.37C20.39 6.29 20.37 6.19 20.37 6.1V1H7.72003C7.17003 1 6.67003 1.22 6.31003 1.58C5.95003 1.94 5.73003 2.44 5.73003 2.99V28.21C5.73003 28.76 5.95003 29.26 6.31003 29.62C6.67003 29.98 7.17003 30.2 7.72003 30.2H41.7C42.25 30.2 42.75 29.98 43.11 29.62C43.47 29.26 43.69 28.76 43.69 28.21V2.99C43.69 2.44 43.47 1.94 43.11 1.58C42.75 1.22 42.25 0.99 41.7 0.99H29.04V1ZM21.37 1H28.05V5.95L27.27 7.13L26.41 5.83C26.26 5.6 25.95 5.54 25.72 5.69C25.66 5.73 25.61 5.78 25.58 5.83L24.72 7.13L23.86 5.83C23.71 5.6 23.4 5.54 23.17 5.69C23.11 5.73 23.06 5.78 23.02 5.83L22.16 7.13L21.38 5.95V1H21.37ZM44.69 2.99V28.21C44.69 28.97 44.4 29.67 43.92 30.2H48.38C48.66 30.2 48.88 30.43 48.88 30.7V32.97C48.88 33.24 48.66 33.47 48.38 33.47H46.53V39.93H48.38C48.66 39.93 48.88 40.15 48.88 40.43V42.7C48.88 42.97 48.66 43.2 48.38 43.2H1.03003C0.760029 43.2 0.530029 42.98 0.530029 42.7V40.43C0.530029 40.15 0.750029 39.93 1.03003 39.93H2.88003V33.47H1.03003C0.760029 33.47 0.530029 33.25 0.530029 32.97V30.7C0.530029 30.43 0.750029 30.2 1.03003 30.2H5.49003C5.02003 29.67 4.73003 28.97 4.73003 28.21V2.99C4.73003 2.17 5.07003 1.42 5.61003 0.88C6.15003 0.34 6.90003 0 7.72003 0H41.7C42.53 0 43.27 0.34 43.81 0.88C44.35 1.42 44.69 2.17 44.69 2.99ZM11.35 33.48V39.94H20.47V33.48H11.35ZM3.87003 33.48V39.94H10.35V33.48H3.88003H3.87003ZM38.06 39.94V33.48H28.94V39.94H38.06ZM39.06 33.48V39.94H45.54V33.48H39.06ZM28.45 40.94H1.53003V42.22H47.89V40.94H28.45ZM27.95 33.48H21.47V39.94H27.95V33.48Z" fill="white"/>
<path d="M22.64 19.9099C21.14 20.1399 19.87 20.9499 19.04 22.0799C18.2 23.2099 17.8 24.6699 18.02 26.1599C18.06 26.4299 18.31 26.6099 18.58 26.5699C20.08 26.3399 21.35 25.5299 22.18 24.3999C23.02 23.2699 23.42 21.8199 23.2 20.3199C23.16 20.0499 22.91 19.8699 22.64 19.9099ZM21.4 23.8199C20.81 24.6199 19.96 25.2199 18.95 25.4999C18.91 24.4499 19.24 23.4599 19.83 22.6599C20.42 21.8599 21.27 21.2499 22.28 20.9799C22.32 22.0299 21.99 23.0199 21.4 23.8199Z" fill="white"/>
<path d="M23.0001 18.5603C24.1001 17.5203 24.6801 16.1203 24.7101 14.7203C24.7501 13.3103 24.2501 11.8903 23.2101 10.7903C23.0201 10.5903 22.7101 10.5803 22.5201 10.7703C21.4201 11.8103 20.8501 13.2103 20.8101 14.6103C20.7701 16.0203 21.2701 17.4403 22.3101 18.5403C22.5001 18.7403 22.8101 18.7503 23.0001 18.5603ZM21.7801 14.6403C21.8101 13.6503 22.1601 12.6603 22.8301 11.8603C23.4601 12.7003 23.7601 13.7003 23.7301 14.6903C23.7101 15.6803 23.3501 16.6703 22.6801 17.4703C22.0501 16.6303 21.7501 15.6303 21.7801 14.6403Z" fill="white"/>
<path d="M9.83013 17.9404C10.9701 18.9404 12.4101 19.3804 13.8101 19.2904C15.2201 19.2004 16.5801 18.5704 17.5801 17.4304C17.7601 17.2304 17.7401 16.9203 17.5301 16.7403C16.3901 15.7403 14.9501 15.3004 13.5401 15.3904C12.1401 15.4804 10.7701 16.1103 9.77013 17.2503C9.59013 17.4503 9.61013 17.7604 9.82013 17.9404H9.83013ZM13.6201 16.3604C14.6101 16.2904 15.6201 16.5503 16.4801 17.1503C15.7001 17.8503 14.7401 18.2503 13.7401 18.3103C12.7501 18.3803 11.7401 18.1104 10.8801 17.5204C11.6501 16.8204 12.6301 16.4304 13.6201 16.3604Z" fill="white"/>
<path d="M26.1402 27.0001C26.2702 27.0101 26.5302 27.0201 26.5302 27.0201C26.6002 27.0201 26.8902 27.0001 26.9502 27.0001C27.0102 27.0001 27.0202 26.0101 27.0002 26.0101C26.9702 25.4101 26.8802 24.8201 26.7402 24.2501L28.2302 22.2301C30.9102 21.7701 33.1702 20.3001 34.6702 18.2601C36.2102 16.1801 36.9602 13.5001 36.5402 10.7401C36.5402 10.7201 36.5402 10.7101 36.5402 10.6901C36.5002 10.5301 36.3902 10.4201 36.2502 10.3601H36.2002L36.1702 10.3401H36.1602C36.1602 10.3401 36.1302 10.3401 36.1102 10.3301C36.0902 10.3301 36.0802 10.3301 36.0602 10.3301H36.0502C36.0502 10.3301 36.0102 10.3301 35.9802 10.3301C33.2102 10.7501 30.8802 12.2401 29.3402 14.3301C27.8402 16.3601 27.0902 18.9601 27.4402 21.6501L26.3702 23.1001C25.8902 21.8301 25.1402 20.6901 24.1902 19.7501C22.4502 18.0101 20.0502 16.9401 17.4002 16.9401C17.1302 16.9401 16.9102 17.1601 16.9102 17.4301C16.9102 17.7001 17.1302 17.9201 17.4002 17.9201C19.7802 17.9201 21.9402 18.8901 23.5002 20.4501C24.9402 21.9001 25.8802 23.8501 26.0102 26.0301C26.0102 26.0301 26.0902 27.0201 26.1302 27.0301L26.1402 27.0001ZM33.9002 17.6701C32.7402 19.2301 31.0902 20.4301 29.1402 21.0101L35.6902 12.1401C35.7102 14.1801 35.0502 16.1101 33.9002 17.6701ZM30.1402 14.9001C31.2902 13.3401 32.9502 12.1401 34.9002 11.5601L28.3502 20.4301C28.3202 18.3901 28.9902 16.4601 30.1402 14.9001Z" fill="white"/>
</g>
<defs>
<clipPath id="clip0_59_27">
<rect width="48.36" height="43.2" fill="white" transform="translate(0.530029)"/>
</clipPath>
</defs>
</svg>
