<svg width="91" height="44" viewBox="0 0 91 44" fill="none" xmlns="http://www.w3.org/2000/svg">
<g clip-path="url(#clip0_59_18)">
<path fill-rule="evenodd" clip-rule="evenodd" d="M65.6501 33.91C66.9301 33.91 68.0901 34.43 68.9301 35.27C69.7701 36.11 70.2901 37.28 70.2901 38.55C70.2901 39.74 69.8501 40.82 69.1101 41.64H73.2101C72.4801 40.82 72.0301 39.73 72.0301 38.55C72.0301 37.27 72.5501 36.11 73.3901 35.27C74.2401 34.43 75.4001 33.91 76.6801 33.91C77.9601 33.91 79.0801 34.41 79.9201 35.23L79.9701 35.27C80.8101 36.11 81.3301 37.28 81.3301 38.55C81.3301 39.73 80.8901 40.82 80.1501 41.64H89.4201C89.8501 41.64 90.2001 41.99 90.2001 42.42C90.2001 42.85 89.8501 43.2 89.4201 43.2H1.67014C1.24014 43.2 0.890137 42.85 0.890137 42.42C0.890137 41.99 1.24014 41.64 1.67014 41.64H10.9401C10.2101 40.82 9.76014 39.73 9.76014 38.55C9.76014 37.27 10.2801 36.11 11.1201 35.27C11.9601 34.43 13.1201 33.91 14.4001 33.91C15.6801 33.91 16.8001 34.41 17.6401 35.23L17.6901 35.27C18.5301 36.11 19.0501 37.28 19.0501 38.55C19.0501 39.73 18.6101 40.82 17.8701 41.64H21.9701C21.2401 40.82 20.7901 39.73 20.7901 38.55C20.7901 37.27 21.3101 36.11 22.1501 35.27C22.9901 34.43 24.1501 33.91 25.4301 33.91C26.7101 33.91 27.8301 34.41 28.6701 35.23L28.7201 35.27C29.5601 36.11 30.0801 37.28 30.0801 38.55C30.0801 39.73 29.6301 40.82 28.9001 41.64H62.1801C61.4501 40.82 61.0001 39.74 61.0001 38.55C61.0001 37.27 61.5201 36.11 62.3601 35.27C63.2001 34.42 64.3601 33.9 65.6401 33.9L65.6501 33.91ZM90.2101 38.56V18.89C90.2101 18.46 89.8601 18.11 89.4301 18.11C89.0001 18.11 88.6501 18.46 88.6501 18.89V24.55H84.0201V4.67C84.0201 3.38 83.5001 2.22 82.6501 1.37C81.8001 0.52 80.6301 0 79.3501 0H11.1701C9.88014 0 8.71014 0.52 7.87014 1.37C7.03014 2.21 6.50014 3.38 6.50014 4.67V24.55H2.45014V18.89C2.45014 18.46 2.10014 18.11 1.67014 18.11C1.24014 18.11 0.890137 18.46 0.890137 18.89V38.56C0.890137 38.99 1.24014 39.34 1.67014 39.34C2.10014 39.34 2.45014 38.99 2.45014 38.56V32.35H31.8501V37.21C31.8501 37.64 32.2001 37.99 32.6301 37.99H58.4701C58.9001 37.99 59.2501 37.64 59.2501 37.21V32.35H88.6501V38.56C88.6501 38.99 89.0001 39.34 89.4301 39.34C89.8601 39.34 90.2101 38.99 90.2101 38.56ZM76.6901 35.47C75.8401 35.47 75.0601 35.82 74.5101 36.37C73.9501 36.93 73.6001 37.7 73.6001 38.56C73.6001 39.42 73.9501 40.19 74.5001 40.75C75.0501 41.31 75.8301 41.65 76.6801 41.65C77.5301 41.65 78.3101 41.31 78.8601 40.75C79.4201 40.19 79.7601 39.42 79.7601 38.56C79.7601 37.7 79.4101 36.94 78.8501 36.38L78.8101 36.34C78.2601 35.8 77.5001 35.47 76.6601 35.47H76.6901ZM15.5201 20.33C15.5201 20.76 15.1701 21.11 14.7401 21.11C14.3101 21.11 13.9601 20.76 13.9601 20.33V5.77C13.9601 5.34 14.3101 4.99 14.7401 4.99C15.1701 4.99 15.5201 5.34 15.5201 5.77V20.33ZM30.7801 20.33C30.7801 20.76 30.4301 21.11 30.0001 21.11C29.5701 21.11 29.2201 20.76 29.2201 20.33V5.77C29.2201 5.34 29.5701 4.99 30.0001 4.99C30.4301 4.99 30.7801 5.34 30.7801 5.77V20.33ZM46.0401 20.33C46.0401 20.76 45.6901 21.11 45.2701 21.11C44.8501 21.11 44.4901 20.76 44.4901 20.33V5.77C44.4901 5.34 44.8401 4.99 45.2701 4.99C45.7001 4.99 46.0401 5.34 46.0401 5.77V20.33ZM61.3101 20.33C61.3101 20.76 60.9601 21.11 60.5301 21.11C60.1001 21.11 59.7501 20.76 59.7501 20.33V5.77C59.7501 5.34 60.1001 4.99 60.5301 4.99C60.9601 4.99 61.3101 5.34 61.3101 5.77V20.33ZM76.5701 20.33C76.5701 20.76 76.2201 21.11 75.7901 21.11C75.3601 21.11 75.0101 20.76 75.0101 20.33V5.77C75.0101 5.34 75.3601 4.99 75.7901 4.99C76.2201 4.99 76.5701 5.34 76.5701 5.77V20.33ZM8.06014 24.55V4.67C8.06014 3.81 8.41014 3.03 8.98014 2.47C9.54014 1.91 10.3201 1.56 11.1801 1.56H79.3501C80.2101 1.56 80.9901 1.91 81.5501 2.47C82.1101 3.04 82.4601 3.81 82.4601 4.67V24.55H8.06014ZM58.4701 30.8H88.6501V26.11H2.45014V30.8H32.6301C33.0601 30.8 33.4101 31.15 33.4101 31.58V36.44H57.6901V31.58C57.6901 31.15 58.0401 30.8 58.4701 30.8ZM14.4101 35.47C13.5601 35.47 12.7801 35.82 12.2301 36.37C11.6701 36.93 11.3201 37.7 11.3201 38.56C11.3201 39.42 11.6701 40.19 12.2201 40.75C12.7801 41.31 13.5501 41.65 14.4001 41.65C15.2501 41.65 16.0301 41.31 16.5801 40.75C17.1401 40.19 17.4801 39.42 17.4801 38.56C17.4801 37.7 17.1301 36.94 16.5701 36.38L16.5301 36.34C15.9801 35.8 15.2201 35.47 14.3801 35.47H14.4101ZM25.4501 35.47C24.6001 35.47 23.8201 35.82 23.2701 36.37C22.7101 36.93 22.3601 37.7 22.3601 38.56C22.3601 39.42 22.7101 40.19 23.2601 40.75C23.8201 41.31 24.5901 41.65 25.4401 41.65C26.2901 41.65 27.0701 41.31 27.6301 40.75C28.1801 40.19 28.5301 39.42 28.5301 38.56C28.5301 37.7 28.1801 36.94 27.6301 36.38L27.5901 36.34C27.0401 35.8 26.2801 35.47 25.4401 35.47H25.4501ZM67.8401 36.38C67.2801 35.82 66.5101 35.48 65.6501 35.48C64.7901 35.48 64.0201 35.82 63.4601 36.38C62.9001 36.94 62.5601 37.71 62.5601 38.56C62.5601 39.41 62.9001 40.19 63.4601 40.75C64.0201 41.31 64.7901 41.65 65.6501 41.65C66.5101 41.65 67.2801 41.31 67.8401 40.75C68.4001 40.19 68.7401 39.42 68.7401 38.56C68.7401 37.7 68.4001 36.93 67.8401 36.38Z" fill="white"/>
</g>
<defs>
<clipPath id="clip0_59_18">
<rect width="89.32" height="43.2" fill="white" transform="translate(0.890137)"/>
</clipPath>
</defs>
</svg>
