<svg width="31" height="44" viewBox="0 0 31 44" fill="none" xmlns="http://www.w3.org/2000/svg">
<g clip-path="url(#clip0_59_10)">
<path fill-rule="evenodd" clip-rule="evenodd" d="M10.5999 26.8098L12.0399 27.3998C12.3099 27.5098 12.5299 27.6598 12.7199 27.8498C12.8999 28.0298 13.0499 28.2498 13.1599 28.4998L15.5199 33.6698L17.8799 28.2498C17.9899 27.9998 18.1399 27.7898 18.3299 27.6198C18.5199 27.4498 18.7499 27.3098 19.0099 27.2098L20.3299 26.7098C20.2699 26.6598 20.2199 26.5998 20.1699 26.5398C19.9099 26.2198 19.7499 25.7998 19.7199 25.3398L19.6699 24.1398L19.5599 24.2398L19.5299 24.2598C18.9399 24.7798 18.2999 25.1898 17.6199 25.4698C16.9499 25.7498 16.2399 25.8998 15.5199 25.8998C14.5099 25.8998 13.5299 25.6098 12.6299 25.0798C12.1899 24.8198 11.7699 24.4998 11.3699 24.1398L11.3199 25.3198V25.3498C11.2899 25.8098 11.1299 26.2298 10.8699 26.5498C10.7899 26.6498 10.6999 26.7398 10.5999 26.8198V26.8098ZM23.6199 14.6898C23.6199 14.8098 23.5999 14.9598 23.5799 15.1198C23.5799 15.1498 23.5799 15.1798 23.5699 15.2098C23.5299 15.5598 23.4699 15.9198 23.4099 16.2798C23.3499 16.6498 23.2699 17.0198 23.1799 17.3998C23.0899 17.7898 22.9999 18.1598 22.8999 18.5198C22.7999 18.8798 22.6899 19.2398 22.5699 19.5798C22.5699 19.5798 22.5599 19.6098 22.5499 19.6198C22.3299 20.1898 22.0899 20.7398 21.8299 21.2398C21.7199 21.4498 21.6099 21.6498 21.4899 21.8398H21.5599C21.8199 21.7798 22.0599 21.7198 22.2899 21.6598C25.5599 16.6098 25.9299 11.8798 24.8799 8.20983C24.3599 6.36983 23.4799 4.79983 22.4399 3.57983C21.4099 2.37983 20.2199 1.52983 19.0499 1.11983C17.8399 0.69983 16.6599 0.76983 15.7299 1.41983C15.6599 1.46983 15.5899 1.52983 15.5399 1.57983C15.4299 1.67983 15.3499 1.75983 15.1999 1.79983C14.8099 1.90983 14.6299 1.73983 14.4599 1.12983C14.4299 1.00983 14.1399 0.95983 13.6899 0.99983C12.9199 1.05983 11.8199 1.42983 10.6799 2.11983C9.51991 2.80983 8.32991 3.82983 7.35991 5.16983C4.95991 8.50983 4.00991 13.9098 8.67991 21.5698C8.89991 21.6298 9.13991 21.6898 9.39991 21.7498L9.48991 21.7698C9.00991 20.9498 8.58991 20.0398 8.25991 19.0398C7.81991 17.7298 7.51991 16.2798 7.40991 14.7498V14.7198C7.39991 14.5398 7.39991 14.3598 7.39991 14.1798C7.39991 13.9998 7.39991 13.8298 7.40991 13.6598C7.40991 13.4598 7.42991 13.2898 7.43991 13.1498C7.44991 13.0098 7.46991 12.8398 7.48991 12.6598C7.95991 9.04983 10.2099 7.10983 11.4199 6.05983H11.4399C11.4399 6.05983 11.5099 5.98983 11.5499 5.96983C11.7699 5.86983 12.0299 5.95983 12.1299 6.17983C12.6599 7.27983 13.5899 7.93983 14.7099 8.38983C15.8799 8.84983 17.2599 9.07983 18.5899 9.29983C19.7699 9.49983 20.9199 9.68983 21.7999 10.0398C22.7899 10.4298 23.4699 11.0098 23.5999 11.9798C23.5999 12.0098 23.5999 12.0198 23.5999 12.0498C23.6399 12.9198 23.6499 13.7998 23.5799 14.6598L23.6199 14.6898ZM21.8299 19.0498L21.7499 19.2898C21.5499 19.8398 21.3199 20.3498 21.0599 20.8398C20.7999 21.3198 20.5299 21.7798 20.2299 22.1898C20.0799 22.3998 19.9199 22.5998 19.7699 22.7898C19.7499 22.8098 19.7299 22.8298 19.7099 22.8598L19.6299 22.9498C19.4399 23.1698 19.2299 23.3698 19.0099 23.5698C18.9999 23.5698 18.9899 23.5898 18.9799 23.5998C18.4499 24.0698 17.8799 24.4398 17.2899 24.6798C16.7199 24.9098 16.1299 25.0398 15.5199 25.0398C14.6699 25.0398 13.8399 24.7898 13.0699 24.3398C12.2599 23.8598 11.5199 23.1598 10.8699 22.2798C10.8599 22.2598 10.8399 22.2398 10.8199 22.2198L10.7899 22.1798C10.1099 21.2198 9.53991 20.0798 9.10991 18.8098C8.68991 17.5698 8.40991 16.1998 8.29991 14.7398C8.29991 14.7198 8.29991 14.7098 8.29991 14.6898C8.29991 14.5298 8.29991 14.3798 8.29991 14.2398C8.29991 14.0898 8.29991 13.9198 8.30991 13.7598C8.30991 13.6198 8.32991 13.4598 8.33991 13.2798C8.35991 13.0998 8.36991 12.9498 8.38991 12.8298C8.76991 9.89983 10.4799 8.13983 11.6499 7.10983C12.3099 8.14983 13.2899 8.80983 14.4199 9.25983C15.6799 9.75983 17.1099 9.99983 18.4799 10.2198C19.6099 10.4098 20.6999 10.5898 21.5099 10.9098C22.2099 11.1898 22.6999 11.5698 22.7699 12.1698C22.7899 12.5598 22.7999 12.9398 22.7999 13.3298C22.7499 15.3098 22.2899 17.1398 21.2399 18.4198C20.3799 19.4598 19.0899 20.1498 17.2599 20.2398V19.5198C17.2599 19.2798 17.0699 19.0798 16.8299 19.0798H14.6399C14.3999 19.0798 14.1999 19.2798 14.1999 19.5198V21.8598C14.1999 22.0998 14.3999 22.2998 14.6399 22.2998H16.8299C17.0699 22.2998 17.2599 22.0998 17.2599 21.8598V21.1198C19.3299 21.0298 20.8199 20.2598 21.8399 19.0698L21.8299 19.0498ZM11.6999 28.2198C11.8499 28.2798 11.9799 28.3698 12.0799 28.4698C12.1899 28.5798 12.2799 28.7098 12.3499 28.8698L15.1099 34.9298C15.2099 35.1498 15.4699 35.2498 15.6899 35.1498C15.7899 35.0998 15.8699 35.0198 15.9099 34.9298L18.6599 28.6098C18.7199 28.4798 18.7999 28.3698 18.8999 28.2798C19.0099 28.1798 19.1499 28.0998 19.2999 28.0398L21.4399 27.2398L21.5699 27.2598C22.1699 27.3698 22.7799 27.4798 23.3799 27.6198C23.4999 27.9298 23.5499 28.2698 23.5999 28.7098C23.6799 29.2998 23.7699 30.0498 24.0899 31.1298L20.2199 28.9798C20.0099 28.8598 19.7399 28.9398 19.6299 29.1498C19.6299 29.1598 19.6099 29.1798 19.6099 29.1898L15.3999 39.3098L11.1899 29.1898C11.0999 28.9698 10.8399 28.8598 10.6199 28.9498C10.5999 28.9598 10.5699 28.9698 10.5499 28.9798L6.70991 31.1198C7.02991 30.0398 7.11991 29.2898 7.19991 28.6998C7.24991 28.2898 7.28991 27.9598 7.39991 27.6698C8.04991 27.5098 8.70991 27.3898 9.36991 27.2698L11.6899 28.2198H11.6999ZM21.3799 26.3298C21.4899 26.3098 21.5999 26.3298 21.6899 26.3898H21.7299C22.3699 26.5098 23.0299 26.6298 23.6699 26.7798C23.7599 26.7798 23.8399 26.7998 23.9199 26.8398C24.5099 26.9898 25.0899 27.1798 25.6499 27.4398C28.1299 28.5898 29.4399 30.5298 30.1399 32.8198C30.8199 35.0598 30.8899 37.6198 30.8799 40.0998V40.6198C30.8799 41.3398 30.5899 41.9998 30.1099 42.4798C29.6299 42.9598 28.9799 43.2498 28.2499 43.2498H2.78991C2.06991 43.2498 1.40991 42.9598 0.929912 42.4798C0.459912 41.9998 0.159912 41.3398 0.159912 40.6198V40.0598C0.159912 37.5898 0.229912 35.0498 0.899912 32.8198C1.59991 30.5298 2.90991 28.5898 5.38991 27.4398C5.87991 27.2098 6.37991 27.0398 6.89991 26.8998C6.95991 26.8698 7.01991 26.8498 7.08991 26.8498C7.81991 26.6598 8.56991 26.5198 9.30991 26.3898L9.65991 26.3298H9.68991C9.87991 26.2798 10.0599 26.1698 10.1899 26.0098C10.3399 25.8198 10.4299 25.5798 10.4499 25.2998L10.5399 23.2698C10.4199 23.1298 10.3099 22.9798 10.1899 22.8298C9.85991 22.7798 9.53991 22.7198 9.23991 22.6498C8.89991 22.5698 8.57991 22.4898 8.28991 22.3998C8.17991 22.3698 8.08991 22.2898 8.03991 22.1998C3.03991 14.0698 4.07991 8.27983 6.66991 4.67983C7.70991 3.22983 8.99991 2.12983 10.2499 1.38983C11.5099 0.62983 12.7399 0.21983 13.6299 0.14983C14.4199 0.0798295 14.9999 0.27983 15.2399 0.71983C16.4199 -0.10017 17.8699 -0.19017 19.3399 0.30983C20.6499 0.75983 21.9799 1.69983 23.1099 3.01983C24.2299 4.32983 25.1699 6.00983 25.7299 7.97983C26.8499 11.8998 26.4399 16.9398 22.9299 22.2898C22.8699 22.3798 22.7799 22.4398 22.6799 22.4698C22.3999 22.5498 22.0799 22.6198 21.7299 22.6898C21.4499 22.7498 21.1499 22.7998 20.8199 22.8498C20.7199 22.9898 20.6099 23.1198 20.4999 23.2498L20.5899 25.2798C20.6099 25.5598 20.6999 25.7998 20.8499 25.9898C20.9899 26.1598 21.1699 26.2798 21.3699 26.3098L21.3799 26.3298ZM25.2699 28.2398C27.4799 29.2698 28.6599 31.0098 29.2899 33.0798C29.9299 35.1998 29.9999 37.6898 29.9899 40.0998V40.6298C29.9899 41.1098 29.7899 41.5498 29.4699 41.8698C29.1499 42.1898 28.7099 42.3898 28.2299 42.3898H2.78991C2.30991 42.3898 1.86991 42.1898 1.54991 41.8798C1.22991 41.5598 1.03991 41.1198 1.03991 40.6398V40.1198C1.03991 40.1198 1.03991 40.0898 1.03991 40.0798C1.03991 37.6798 1.10991 35.2098 1.74991 33.0998C2.37991 31.0298 3.55991 29.2798 5.76991 28.2598C5.98991 28.1498 6.21991 28.0598 6.44991 27.9798C6.40991 28.1798 6.38991 28.3798 6.35991 28.6098C6.26991 29.3298 6.13991 30.3098 5.56991 31.8998C5.51991 32.0198 5.52991 32.1598 5.58991 32.2698C5.70991 32.4798 5.96991 32.5598 6.17991 32.4398L10.5899 29.9798L15.0099 40.6198C15.0499 40.7198 15.1399 40.8098 15.2499 40.8598C15.4699 40.9498 15.7299 40.8498 15.8199 40.6198L20.2399 29.9798L24.6499 32.4398C24.7599 32.4998 24.8899 32.5098 25.0099 32.4698C25.2399 32.3898 25.3499 32.1398 25.2699 31.9098C24.6899 30.3098 24.5699 29.3298 24.4699 28.5998C24.4399 28.3398 24.4099 28.1098 24.3699 27.8998C24.6799 27.9998 24.9799 28.1198 25.2699 28.2498V28.2398ZM10.4399 25.2898C10.4599 25.0498 10.6599 24.8798 10.8999 24.8898L10.4399 25.2898ZM16.3899 20.7398V21.4098H15.0699V19.9498H16.3899V20.6198C16.3899 20.6198 16.3899 20.6598 16.3899 20.6798C16.3899 20.6998 16.3899 20.7198 16.3899 20.7398Z" fill="white"/>
</g>
<defs>
<clipPath id="clip0_59_10">
<rect width="30.72" height="43.24" fill="white" transform="translate(0.159912)"/>
</clipPath>
</defs>
</svg>
