<svg width="38" height="44" viewBox="0 0 38 44" fill="none" xmlns="http://www.w3.org/2000/svg">
<g clip-path="url(#clip0_59_6)">
<path fill-rule="evenodd" clip-rule="evenodd" d="M24.79 39.28H22.01V42.32H24.79V39.28ZM19.12 0C23.67 0 27.79 1.85 30.77 4.83C33.75 7.81 35.6 11.93 35.6 16.48V17.99C36.21 18.08 36.76 18.36 37.17 18.78C37.67 19.28 37.98 19.98 37.98 20.74V29.32C37.98 30.08 37.67 30.78 37.17 31.28C36.67 31.78 35.97 32.09 35.21 32.09H32.77V33.74C32.77 35.82 31.93 37.7 30.57 39.06C29.31 40.32 27.61 41.13 25.71 41.25V42.78C25.71 43.04 25.5 43.24 25.25 43.24H21.54C21.28 43.24 21.08 43.03 21.08 42.78V38.82C21.08 38.57 21.29 38.36 21.54 38.36H25.25C25.5 38.36 25.71 38.57 25.71 38.82V40.32C27.35 40.21 28.82 39.5 29.92 38.4C31.11 37.21 31.85 35.56 31.85 33.73V33.4C31.78 33.45 31.69 33.47 31.6 33.47H27.89C27.63 33.47 27.43 33.26 27.43 33.01V17.03C27.43 16.77 27.64 16.57 27.89 16.57H31.6C31.6 16.57 31.64 16.57 31.66 16.57V16.48C31.66 13.02 30.26 9.88 27.99 7.61C25.72 5.34 22.58 3.94 19.12 3.94C15.66 3.94 12.52 5.34 10.25 7.61C7.98001 9.88 6.58001 13.02 6.58001 16.48V16.57C6.58001 16.57 6.62001 16.57 6.64001 16.57H10.35C10.6 16.57 10.81 16.78 10.81 17.03V33.01C10.81 33.26 10.6 33.47 10.35 33.47H6.64001C6.39001 33.47 6.18001 33.26 6.18001 33.01V32.08H3.02001C2.26001 32.08 1.57001 31.77 1.07001 31.27C0.57001 30.76 0.26001 30.07 0.26001 29.31V20.73C0.26001 19.97 0.57001 19.27 1.07001 18.77C1.49001 18.35 2.04001 18.07 2.65001 17.98V16.47C2.65001 11.92 4.49001 7.8 7.48001 4.82C10.45 1.85 14.57 0 19.12 0ZM30.12 5.48C27.3 2.67 23.41 0.92 19.12 0.92C14.83 0.92 10.94 2.67 8.12001 5.48C5.30001 8.3 3.56001 12.18 3.56001 16.48V17.96H5.65001V16.48C5.65001 12.76 7.16001 9.39 9.59001 6.96C12.03 4.52 15.39 3.02 19.11 3.02C22.83 3.02 26.2 4.53 28.63 6.96C31.07 9.4 32.57 12.76 32.57 16.48V17.96H34.66V16.48C34.66 12.19 32.92 8.3 30.1 5.48H30.12ZM35.22 18.88H32.07V31.16H35.22C35.73 31.16 36.19 30.95 36.53 30.62C36.86 30.28 37.07 29.82 37.07 29.31V20.73C37.07 20.22 36.86 19.76 36.53 19.42C36.19 19.09 35.73 18.88 35.22 18.88ZM31.14 17.49H28.36V32.55H31.14V17.49ZM6.18001 18.88H3.02001C2.51001 18.88 2.05001 19.09 1.71001 19.42C1.38001 19.76 1.17001 20.22 1.17001 20.73V29.31C1.17001 29.82 1.38001 30.28 1.71001 30.62C2.04001 30.96 2.51001 31.16 3.02001 31.16H6.17001V18.88H6.18001ZM9.89001 17.49H7.11001V32.55H9.89001V17.49Z" fill="white"/>
</g>
<defs>
<clipPath id="clip0_59_6">
<rect width="37.74" height="43.24" fill="white" transform="translate(0.25)"/>
</clipPath>
</defs>
</svg>
