<svg width="47" height="44" viewBox="0 0 47 44" fill="none" xmlns="http://www.w3.org/2000/svg">
<g clip-path="url(#clip0_59_12)">
<path fill-rule="evenodd" clip-rule="evenodd" d="M38.95 26.4602L46.01 33.5302C46.21 33.7302 46.21 34.0502 46.01 34.2402C45.91 34.3402 45.78 34.3902 45.65 34.3902H37.31V42.7302C37.31 43.0102 37.08 43.2402 36.8 43.2402C36.66 43.2402 36.53 43.1802 36.44 43.0902L28.08 34.7202C26.67 35.0802 25.19 35.2802 23.67 35.2802C22.49 35.2802 21.34 35.1602 20.23 34.9402C19.85 34.8602 19.47 34.7702 19.09 34.6702L10.72 43.0402C10.63 43.1402 10.5 43.2002 10.36 43.2002C10.08 43.2002 9.84998 42.9702 9.84998 42.6902V34.3502H1.48998C1.35998 34.3502 1.22998 34.3002 1.12998 34.2002C0.92998 34.0002 0.92998 33.6802 1.12998 33.4802L8.29998 26.3102C7.94998 25.6802 7.62998 25.0402 7.34998 24.3702C6.90998 23.3102 6.57998 22.2102 6.34998 21.0702C6.12998 19.9502 6.00998 18.8002 6.00998 17.6302C6.00998 16.4602 6.12998 15.3002 6.34998 14.1902C6.57998 13.0502 6.91998 11.9402 7.34998 10.8902C7.79998 9.81024 8.33998 8.79023 8.97998 7.84023C9.61998 6.88023 10.36 5.98023 11.18 5.16023C11.99 4.35023 12.89 3.61023 13.86 2.96023C14.81 2.32023 15.84 1.77023 16.91 1.33023C17.97 0.890234 19.07 0.560234 20.21 0.330234C21.32 0.110234 22.48 -0.00976562 23.65 -0.00976562C24.82 -0.00976562 25.98 0.110234 27.09 0.330234C28.23 0.560234 29.34 0.890234 30.39 1.33023C31.47 1.78023 32.49 2.32023 33.44 2.96023C34.41 3.61023 35.31 4.35023 36.12 5.16023L36.14 5.19023C36.95 6.00023 37.67 6.89023 38.31 7.84023C38.95 8.80023 39.5 9.82024 39.94 10.8902C40.38 11.9502 40.72 13.0502 40.94 14.1902C41.16 15.3002 41.28 16.4602 41.28 17.6302C41.28 18.8002 41.16 19.9602 40.94 21.0702C40.71 22.2102 40.38 23.3102 39.94 24.3702C39.64 25.0902 39.3 25.7802 38.92 26.4402L38.95 26.4602ZM17.99 34.3502L17.85 34.3002H17.81L17.99 34.3502ZM17.81 34.2902H17.78V34.2702H17.73V34.2502H17.69V34.2302H17.65V34.2102H17.61L17.59 34.1902H17.56V34.1702H17.51V34.1502H17.47L17.42 34.1202C17.25 34.0602 17.09 33.9902 16.92 33.9202C15.85 33.4802 14.83 32.9302 13.87 32.2902C12.91 31.6502 12.01 30.9102 11.19 30.0902L11.17 30.0702H11.16V30.0502L11.13 30.0302L11.11 30.0102L11.09 29.9902L11.07 29.9602L11.05 29.9402L11.03 29.9202L11.01 29.8902H11V29.8702L10.97 29.8502L10.95 29.8302L10.93 29.8102L10.91 29.7802L10.89 29.7502L10.87 29.7302L10.85 29.7102L10.8 29.6602L10.76 29.6102L10.74 29.5802C10.3 29.0902 9.87998 28.5902 9.48998 28.0502V28.0302H9.46998V28.0102L9.44998 27.9902C9.38998 27.9102 9.32998 27.8202 9.26998 27.7402V27.7202H9.24998V27.7002L9.22998 27.6802V27.6602L9.20998 27.6402V27.6202H9.18998V27.6002L9.15998 27.5802V27.5602L9.13998 27.5402V27.5202L9.11998 27.5002V27.4802H9.10998V27.4602L9.07998 27.4402V27.4202L9.04998 27.4002V27.3802L9.02998 27.3602V27.3402L9.00998 27.3202V27.3002H8.99998V27.2702L8.96998 27.2502V27.2302L8.93998 27.2102L2.80998 33.3402H10.44C10.72 33.3402 10.95 33.5702 10.95 33.8502V41.4802L18.08 34.3502L17.9 34.2902H17.81ZM17.31 33.0202C17.49 33.0902 17.66 33.1602 17.83 33.2302H17.87V33.2502L17.95 33.2702H17.98V33.2902H18.03V33.3102H18.09V33.3302H18.14V33.3502H18.19V33.3702H18.25V33.3902H18.3V33.4102H18.35V33.4302H18.4V33.4502H18.46V33.4702H18.49L18.54 33.4902C18.71 33.5402 18.88 33.6002 19.06 33.6502H19.1C19.53 33.7902 19.97 33.8902 20.41 33.9802C21.46 34.1902 22.55 34.3002 23.66 34.3002C25.18 34.3002 26.66 34.0902 28.06 33.7102C28.08 33.7102 28.1 33.7002 28.13 33.6902L28.19 33.6702H28.23L28.25 33.6502L28.32 33.6302L28.38 33.6102L28.44 33.5902L28.5 33.5702L28.56 33.5502C29.75 33.1802 30.89 32.6802 31.96 32.0702L32.02 32.0402L32.08 32.0102L32.12 31.9802H32.13L32.36 31.8302H32.38L32.42 31.8002L32.47 31.7702L32.53 31.7302H32.55L32.59 31.6902L32.64 31.6602L32.7 31.6202L32.72 31.6002L32.75 31.5802L32.8 31.5502L32.85 31.5102L32.88 31.4902L32.91 31.4702L32.96 31.4302L33.02 31.3902L33.04 31.3702L33.07 31.3502L33.13 31.3102L33.18 31.2702L33.21 31.2502L33.24 31.2302L33.3 31.1902L33.35 31.1502L33.38 31.1302L33.4 31.1102L33.45 31.0702L33.5 31.0302L33.53 31.0102L33.55 30.9902L33.6 30.9502L33.65 30.9102L33.68 30.8802L33.7 30.8602L33.75 30.8202L33.83 30.7502H33.85L33.9 30.6902L33.94 30.6502L33.98 30.6202H34L34.05 30.5602L34.09 30.5202L34.13 30.4902H34.14L34.21 30.4202L34.25 30.3902L34.29 30.3602H34.3L34.35 30.3102H34.36L34.4 30.2702L34.44 30.2402L34.49 30.1902H34.51L34.55 30.1502L34.59 30.1102L34.65 30.0602L34.67 30.0402L34.7 30.0102L34.74 29.9702L34.79 29.9202L34.81 29.9002L34.84 29.8702L34.88 29.8302L34.93 29.7802L34.95 29.7602L34.98 29.7302L35.02 29.6902L35.07 29.6402L35.09 29.6202L35.12 29.5902L35.17 29.5402L35.22 29.4902L35.24 29.4702L35.26 29.4502L35.31 29.4002C35.78 28.9302 36.22 28.4302 36.63 27.9102C37.04 27.3902 37.42 26.8402 37.76 26.2702V26.2502C38.21 25.5302 38.59 24.7702 38.92 23.9902C39.33 23.0002 39.65 21.9602 39.86 20.8802C40.07 19.8302 40.18 18.7402 40.18 17.6302C40.18 16.5202 40.07 15.4302 39.86 14.3802C39.65 13.3002 39.33 12.2602 38.92 11.2702C38.5 10.2602 37.98 9.30023 37.38 8.40023C36.78 7.50023 36.09 6.66023 35.33 5.90023L35.3 5.88023C34.53 5.11023 33.68 4.41023 32.78 3.81023C31.88 3.21023 30.92 2.69023 29.91 2.27023C28.92 1.86023 27.88 1.54023 26.8 1.33023C25.75 1.12023 24.66 1.01023 23.55 1.01023C22.44 1.01023 21.35 1.12023 20.3 1.33023C19.22 1.54023 18.18 1.86023 17.19 2.27023C16.18 2.69023 15.22 3.21023 14.32 3.81023C13.42 4.41023 12.57 5.11023 11.79 5.88023C11.02 6.65023 10.32 7.49023 9.71998 8.40023C9.11998 9.30023 8.59998 10.2602 8.17998 11.2702C7.76998 12.2602 7.44998 13.3002 7.23998 14.3802C7.02998 15.4302 6.91998 16.5202 6.91998 17.6302C6.91998 18.7402 7.02998 19.8302 7.23998 20.8802C7.44998 21.9602 7.76998 23.0002 8.17998 23.9902C8.48998 24.7302 8.84998 25.4402 9.24998 26.1302L9.26998 26.1702V26.2002L9.29998 26.2302L9.31998 26.2602V26.2802H9.33998L9.35998 26.3202V26.3502L9.38998 26.3702L9.40998 26.4002V26.4302L9.43998 26.4502L9.45998 26.4802V26.5102L9.48998 26.5402L9.50998 26.5702V26.6002L9.52998 26.6302V26.6602L9.55998 26.6802L9.57998 26.7202V26.7502L9.60998 26.7702L9.62998 26.8002V26.8302L9.65998 26.8602L9.67998 26.8902V26.9102H9.69998L9.71998 26.9502V26.9802L9.74998 27.0002L9.76998 27.0302V27.0602L9.79998 27.0802L9.81998 27.1102V27.1302L9.84998 27.1602L9.86998 27.1902L9.91998 27.2702L9.93998 27.2902L9.97998 27.3502L9.99998 27.3702L10.06 27.4502L10.11 27.5302C10.43 27.9802 10.77 28.4002 11.14 28.8002L11.27 28.9402V28.9602L11.3 28.9802L11.32 29.0002L11.34 29.0202L11.41 29.1002L11.43 29.1302V29.1502L11.47 29.1702L11.49 29.1902H11.5V29.2102L11.53 29.2302L11.55 29.2502L11.57 29.2702L11.59 29.3002L11.61 29.3202L11.63 29.3402L11.65 29.3702V29.3902L11.69 29.4102C12.46 30.1802 13.31 30.8802 14.21 31.4802C15.11 32.0802 16.07 32.6002 17.09 33.0202H17.31ZM11.54 14.4102C11.4 14.4102 11.27 14.4702 11.17 14.5802C10.99 14.7902 11.01 15.1102 11.22 15.2902L17.52 20.8502L15.69 29.0202C15.65 29.1502 15.67 29.2902 15.74 29.4102C15.88 29.6502 16.19 29.7302 16.43 29.5902L23.67 25.3102L30.9 29.6002C31 29.6602 31.13 29.6902 31.26 29.6602C31.53 29.6002 31.7 29.3302 31.64 29.0602L29.81 20.8602L36.12 15.3102C36.21 15.2302 36.28 15.1102 36.29 14.9802C36.32 14.7002 36.11 14.4602 35.84 14.4302L27.47 13.6402L24.14 5.92023C24.09 5.81023 24 5.71023 23.88 5.66023C23.63 5.55023 23.33 5.66023 23.22 5.92023L19.88 13.6302L11.55 14.4102H11.54ZM20.26 14.6102L12.76 15.3102L18.41 20.2902C18.54 20.4102 18.61 20.5902 18.57 20.7802L16.92 28.1302L23.4 24.3002C23.55 24.2102 23.75 24.2002 23.92 24.3002L30.4 28.1402L28.76 20.8302C28.7 20.6402 28.76 20.4402 28.91 20.3002L34.57 15.3202L27.11 14.6102C26.92 14.6102 26.74 14.4902 26.66 14.3102L23.67 7.39023L20.69 14.2902C20.62 14.4602 20.46 14.5902 20.26 14.6102ZM33.98 31.9602C33.88 32.0302 33.79 32.1002 33.69 32.1602L33.66 32.1802L33.63 32.2002C33.53 32.2702 33.43 32.3302 33.33 32.4002L33.3 32.4202L33.27 32.4402L33.21 32.4802L33.16 32.5202L33.1 32.5602L33.04 32.6002L32.99 32.6402L32.95 32.6602H32.93L32.87 32.7102L32.82 32.7502L32.78 32.7702H32.76L32.7 32.8202L32.65 32.8602L32.61 32.8802H32.59L32.54 32.9202H32.52L32.5 32.9502L32.45 32.9802H32.43L32.4 33.0102L32.35 33.0402H32.33L32.3 33.0702L32.25 33.1002L32.21 33.1302L32.16 33.1602L32.11 33.1902L32.06 33.2202L32.01 33.2502L31.96 33.2702L31.91 33.3002L31.87 33.3202H31.86L31.81 33.3502L31.77 33.3702H31.76L31.71 33.4002H31.68L31.66 33.4302L31.61 33.4602H31.58L31.56 33.4902L31.51 33.5102H31.49L31.46 33.5402L31.41 33.5702H31.39L31.35 33.5902L31.3 33.6202H31.29L31.25 33.6402L31.2 33.6602L31.16 33.6802L31.11 33.7002L31.06 33.7202L31.01 33.7402L30.96 33.7702L30.92 33.7902L30.87 33.8202L30.83 33.8402H30.82L30.77 33.8702L30.72 33.8902L30.67 33.9102L30.54 33.9702H30.51L30.46 34.0002H30.45L30.41 34.0202L30.3 34.0602L30.25 34.0802L30.2 34.1002C29.91 34.2102 29.62 34.3202 29.33 34.4102L36.44 41.5202V33.8902C36.44 33.6102 36.67 33.3802 36.95 33.3802H44.58L38.55 27.3502C38.28 27.7602 37.99 28.1602 37.69 28.5402C37.25 29.1002 36.78 29.6202 36.29 30.1202L36.24 30.1702L36.21 30.2002L36.19 30.2202L36.14 30.2702L36.09 30.3202L36.06 30.3502L36.04 30.3702L35.99 30.4202L35.94 30.4702L35.91 30.5002L35.89 30.5202L35.84 30.5702L35.79 30.6202L35.76 30.6502L35.74 30.6702L35.69 30.7202L35.64 30.7702L35.6 30.8002L35.58 30.8202L35.53 30.8702L35.49 30.9202L35.45 30.9502H35.43L35.37 31.0102H35.36L35.32 31.0602L35.28 31.0902H35.26L35.21 31.1502H35.2L35.16 31.2002L35.12 31.2402H35.11L35.06 31.2902H35.04L35 31.3402L34.94 31.3902L34.89 31.4302L34.83 31.4802L34.79 31.5202L34.73 31.5702L34.67 31.6102L34.62 31.6502L34.56 31.7002L34.54 31.7202L34.5 31.7502L34.39 31.8302L34.37 31.8502L34.33 31.8802L34.22 31.9602L34.19 31.9802L34.16 32.0002L33.98 31.9602Z" fill="white"/>
</g>
<defs>
<clipPath id="clip0_59_12">
<rect width="45.17" height="43.24" fill="white" transform="translate(0.98999)"/>
</clipPath>
</defs>
</svg>
