<svg width="44" height="44" viewBox="0 0 44 44" fill="none" xmlns="http://www.w3.org/2000/svg">
<g clip-path="url(#clip0_59_2)">
<path d="M31.26 11.3199L22.53 20.0499L21.86 19.5499L21.59 17.5799C21.55 17.2999 21.29 17.0999 21 17.1399C20.72 17.1799 20.52 17.4399 20.56 17.7299L20.69 18.6799L13.6 13.3899C13.37 13.2199 13.04 13.2699 12.87 13.4999L11.35 15.5399C11.18 15.7699 11.22 16.0999 11.46 16.2699L19.96 22.6199L18.65 23.9299C18.45 24.1299 18.45 24.4599 18.65 24.6699C18.85 24.8699 19.18 24.8699 19.39 24.6699L20.81 23.2499L21.39 23.6799L23.03 35.4699C23.07 35.7499 23.33 35.9499 23.62 35.9199C23.9 35.8799 24.1 35.6199 24.06 35.3299L22.55 24.4799C22.74 24.5099 22.94 24.4399 23.06 24.2799L24.59 22.2399C24.76 22.0099 24.71 21.6799 24.48 21.5099L23.38 20.6799L32.01 12.0599C32.21 11.8599 32.21 11.5199 32.01 11.3199C31.8 11.1199 31.48 11.1199 31.27 11.3199H31.26ZM23.43 22.0299L22.53 23.2399L21.08 22.1599L21.05 22.1399L12.5 15.7499L13.4 14.5399L22.25 21.1499L22.28 21.1699L23.43 22.0299Z" fill="white"/>
<path d="M21.63 0C15.65 0 10.25 2.42 6.33 6.33C2.42 10.25 0 15.65 0 21.62C0 27.59 2.42 33 6.33 36.91C10.24 40.82 15.65 43.24 21.62 43.24C27.59 43.24 33 40.82 36.91 36.91C40.82 33 43.24 27.59 43.24 21.62C43.24 15.65 40.82 10.24 36.91 6.33C33 2.42 27.6 0 21.63 0ZM36.18 36.17C32.45 39.9 27.31 42.2 21.63 42.2C15.95 42.2 10.8 39.9 7.08 36.17C3.35 32.45 1.05 27.3 1.05 21.62C1.05 15.94 3.35 10.79 7.07 7.07C10.8 3.35 15.94 1.04 21.63 1.04C27.32 1.04 32.46 3.35 36.18 7.07C39.9 10.8 42.21 15.94 42.21 21.62C42.21 27.3 39.91 32.45 36.18 36.17Z" fill="white"/>
<path d="M34.2101 9.04031C33.3901 8.22031 32.4801 7.47031 31.5101 6.82031C30.5401 6.17031 29.5201 5.62031 28.4401 5.17031H28.4101C27.3501 4.73031 26.2501 4.39031 25.1101 4.16031C23.9901 3.94031 22.8201 3.82031 21.6401 3.82031C20.4601 3.82031 19.2901 3.94031 18.1701 4.16031C17.0201 4.39031 15.9001 4.73031 14.8401 5.17031C13.7601 5.62031 12.7301 6.17031 11.7701 6.82031C10.7901 7.47031 9.89011 8.22031 9.07011 9.04031C8.25011 9.87031 7.50011 10.7703 6.85011 11.7503C6.21011 12.7103 5.65011 13.7403 5.21011 14.8203C4.77011 15.8803 4.43011 17.0003 4.20011 18.1503C3.98011 19.2803 3.86011 20.4403 3.86011 21.6203C3.86011 22.8003 3.98011 23.9703 4.20011 25.1003C4.43011 26.2503 4.77011 27.3603 5.21011 28.4303C5.66011 29.5103 6.21011 30.5403 6.85011 31.5003C7.50011 32.4803 8.25011 33.3803 9.07011 34.2103L9.10011 34.2403C9.92011 35.0503 10.8201 35.7903 11.7801 36.4303C12.7401 37.0703 13.7701 37.6303 14.8501 38.0703C15.9101 38.5103 17.0301 38.8503 18.1801 39.0803C19.3001 39.3003 20.4701 39.4203 21.6601 39.4203C22.8501 39.4203 24.0101 39.3003 25.1401 39.0803C26.2901 38.8503 27.4001 38.5103 28.4701 38.0703C29.5501 37.6203 30.5801 37.0703 31.5401 36.4203C32.5201 35.7703 33.4201 35.0203 34.2401 34.2003L34.2701 34.1703C35.0801 33.3503 35.8201 32.4603 36.4601 31.5003C37.1001 30.5403 37.6601 29.5103 38.1001 28.4303C38.5401 27.3703 38.8801 26.2503 39.1101 25.1003C39.3301 23.9703 39.4501 22.8103 39.4501 21.6203C39.4501 20.4303 39.3301 19.2703 39.1101 18.1403C38.8801 16.9903 38.5401 15.8803 38.1001 14.8103C37.6501 13.7303 37.1001 12.7003 36.4601 11.7303C35.8101 10.7603 35.0601 9.85031 34.2401 9.03031L34.2101 9.04031ZM35.5701 12.3203C36.1701 13.2303 36.6901 14.2003 37.1201 15.2103C37.5301 16.2103 37.8501 17.2503 38.0701 18.3403C38.2801 19.4003 38.3901 20.5003 38.3901 21.6203C38.3901 22.7403 38.2801 23.8403 38.0701 24.9003C37.8501 25.9903 37.5401 27.0403 37.1201 28.0303C36.7001 29.0503 36.1801 30.0203 35.5701 30.9203C34.9601 31.8203 34.2701 32.6703 33.5001 33.4303L33.4701 33.4603C32.6901 34.2403 31.8401 34.9403 30.9301 35.5503C30.0301 36.1503 29.0601 36.6703 28.0401 37.1003C27.0401 37.5103 26.0001 37.8303 24.9101 38.0503C23.8501 38.2603 22.7601 38.3703 21.6301 38.3703C20.5001 38.3703 19.4101 38.2603 18.3501 38.0503C17.2601 37.8403 16.2101 37.5203 15.2201 37.1003C14.2001 36.6803 13.2301 36.1603 12.3301 35.5503C11.4201 34.9403 10.5801 34.2503 9.81011 33.4903L9.78011 33.4603C9.00011 32.6803 8.30011 31.8303 7.69011 30.9203C7.09011 30.0103 6.57011 29.0503 6.15011 28.0303C5.74011 27.0403 5.42011 25.9903 5.20011 24.9003C4.99011 23.8403 4.88011 22.7503 4.88011 21.6203C4.88011 20.4903 4.99011 19.4003 5.20011 18.3503C5.42011 17.2603 5.74011 16.2103 6.15011 15.2203C6.57011 14.2003 7.09011 13.2403 7.69011 12.3303C8.30011 11.4203 9.00011 10.5603 9.78011 9.79031C10.5601 9.01031 11.4101 8.31031 12.3301 7.70031C13.2301 7.10031 14.2001 6.58031 15.2201 6.15031C16.2201 5.74031 17.2601 5.42031 18.3501 5.20031C19.4101 4.99031 20.5001 4.88031 21.6201 4.88031C22.7401 4.88031 23.8401 4.99031 24.9001 5.20031C25.9801 5.41031 27.0201 5.73031 28.0101 6.13031H28.0301C29.0501 6.57031 30.0201 7.09031 30.9201 7.69031C31.8301 8.30031 32.6801 9.00031 33.4601 9.78031C34.2401 10.5503 34.9401 11.4103 35.5501 12.3203H35.5701Z" fill="white"/>
</g>
<defs>
<clipPath id="clip0_59_2">
<rect width="43.25" height="43.24" fill="white"/>
</clipPath>
</defs>
</svg>
